<svg width="76" height="24" viewBox="0 0 76 24" fill="none" xmlns="http://www.w3.org/2000/svg">
<path d="M4.424 15.9839V12.5759H7.568C8.176 12.5759 8.696 12.4559 9.128 12.2159C9.576 11.9759 9.92 11.6399 10.16 11.2079C10.4 10.7599 10.52 10.2479 10.52 9.67195C10.52 9.06395 10.4 8.54395 10.16 8.11195C9.92 7.66395 9.576 7.32795 9.128 7.10395C8.696 6.86395 8.176 6.74395 7.568 6.74395H4.424V3.33595H7.376C8.864 3.33595 10.136 3.58395 11.192 4.07995C12.264 4.57595 13.08 5.27995 13.64 6.19195C14.216 7.10395 14.504 8.19995 14.504 9.47995V9.86395C14.504 11.1119 14.216 12.1999 13.64 13.1279C13.08 14.0399 12.264 14.7439 11.192 15.2399C10.136 15.7359 8.864 15.9839 7.376 15.9839H4.424ZM0.968002 20.9999V3.33595H4.904V20.9999H0.968002Z" fill="white"/>
<path d="M22.5238 21.4559C21.3718 21.4559 20.3478 21.2799 19.4518 20.9279C18.5558 20.5599 17.7958 20.0639 17.1718 19.4399C16.5638 18.8159 16.0998 18.1039 15.7798 17.3039C15.4598 16.4879 15.2998 15.6319 15.2998 14.7359V14.1839C15.2998 13.2719 15.4598 12.4079 15.7798 11.5919C16.1158 10.7599 16.5958 10.0319 17.2198 9.40795C17.8598 8.78395 18.6278 8.29595 19.5238 7.94395C20.4198 7.57595 21.4198 7.39195 22.5238 7.39195C23.6598 7.39195 24.6678 7.57595 25.5478 7.94395C26.4438 8.29595 27.2038 8.78395 27.8278 9.40795C28.4518 10.0319 28.9318 10.7599 29.2678 11.5919C29.6038 12.4079 29.7718 13.2719 29.7718 14.1839V14.7359C29.7718 15.6319 29.6118 16.4879 29.2918 17.3039C28.9718 18.1039 28.4998 18.8159 27.8758 19.4399C27.2678 20.0639 26.5158 20.5599 25.6198 20.9279C24.7238 21.2799 23.6918 21.4559 22.5238 21.4559ZM22.5238 18.2159C23.2758 18.2159 23.8998 18.0559 24.3958 17.7359C24.8918 17.4159 25.2678 16.9679 25.5238 16.3919C25.7958 15.8159 25.9318 15.1759 25.9318 14.4719C25.9318 13.7199 25.7958 13.0639 25.5238 12.5039C25.2518 11.9279 24.8598 11.4719 24.3478 11.1359C23.8518 10.7999 23.2438 10.6319 22.5238 10.6319C21.8198 10.6319 21.2118 10.7999 20.6998 11.1359C20.1878 11.4719 19.7958 11.9279 19.5238 12.5039C19.2678 13.0639 19.1398 13.7199 19.1398 14.4719C19.1398 15.1759 19.2678 15.8159 19.5238 16.3919C19.7798 16.9679 20.1638 17.4159 20.6758 17.7359C21.1878 18.0559 21.8038 18.2159 22.5238 18.2159Z" fill="white"/>
<path d="M36.9637 21.4079C35.0917 21.4079 33.6277 21.0239 32.5717 20.2559C31.5157 19.4879 30.9557 18.4079 30.8917 17.0159H34.2997C34.3637 17.4319 34.6117 17.8079 35.0437 18.1439C35.4917 18.4639 36.1557 18.6239 37.0357 18.6239C37.7077 18.6239 38.2597 18.5119 38.6917 18.2879C39.1397 18.0479 39.3637 17.7119 39.3637 17.2799C39.3637 16.8959 39.1957 16.5919 38.8597 16.3679C38.5237 16.1279 37.9237 15.9599 37.0597 15.8639L36.0277 15.7679C34.4437 15.6079 33.2517 15.1679 32.4517 14.4479C31.6677 13.7279 31.2757 12.8079 31.2757 11.6879C31.2757 10.7599 31.5077 9.98395 31.9717 9.35995C32.4357 8.73595 33.0757 8.26395 33.8917 7.94395C34.7237 7.62395 35.6677 7.46395 36.7237 7.46395C38.4197 7.46395 39.7877 7.83995 40.8277 8.59195C41.8677 9.32795 42.4117 10.3999 42.4597 11.8079H39.0517C38.9877 11.3759 38.7637 11.0159 38.3797 10.7279C37.9957 10.4239 37.4277 10.2719 36.6757 10.2719C36.0837 10.2719 35.6117 10.3839 35.2597 10.6079C34.9077 10.8319 34.7317 11.1359 34.7317 11.5199C34.7317 11.8879 34.8837 12.1679 35.1877 12.3599C35.4917 12.5519 35.9877 12.6879 36.6757 12.7679L37.7077 12.8639C39.3237 13.0399 40.5797 13.4879 41.4757 14.2079C42.3717 14.9279 42.8197 15.8959 42.8197 17.1119C42.8197 17.9919 42.5797 18.7599 42.0997 19.4159C41.6197 20.0559 40.9397 20.5519 40.0597 20.9039C39.1797 21.2399 38.1477 21.4079 36.9637 21.4079Z" fill="white"/>
<path d="M50.8036 21.1679C49.4756 21.1679 48.4036 21.0079 47.5876 20.6879C46.7716 20.3519 46.1716 19.7999 45.7876 19.0319C45.4196 18.2479 45.2356 17.1919 45.2356 15.8639V4.29595H48.8116V16.0079C48.8116 16.6319 48.9716 17.1119 49.2916 17.4479C49.6276 17.7679 50.0996 17.9279 50.7076 17.9279H52.6516V21.1679H50.8036ZM43.2436 10.6559V7.84795H52.6516V10.6559H43.2436Z" fill="white"/>
<path d="M56.3209 19.3469C56.3209 18.6509 56.4272 17.7519 56.6399 16.6499C56.8719 15.5286 57.1619 14.3299 57.5099 13.0539C57.8772 11.7586 58.2929 10.4439 58.7569 9.10995C59.2209 7.75661 59.6945 6.49028 60.1779 5.31095C60.6612 4.13161 61.1349 3.09728 61.5989 2.20795C62.0629 1.31861 62.4785 0.680613 62.8459 0.293945C63.0392 0.313278 63.2905 0.390612 63.5999 0.525946C63.9285 0.641945 64.2572 0.786945 64.5859 0.960945C64.9145 1.13495 65.2142 1.32828 65.4849 1.54095C65.7555 1.73428 65.9295 1.91795 66.0069 2.09195C65.4462 2.59461 64.8855 3.35828 64.3249 4.38295C63.7835 5.38828 63.2519 6.53861 62.7299 7.83395C62.2272 9.12928 61.7535 10.5019 61.3089 11.9519C60.8642 13.3826 60.4775 14.7746 60.1489 16.1279C59.8202 17.4813 59.5592 18.7379 59.3659 19.8979C59.1919 21.0579 59.1049 21.9956 59.1049 22.7109C59.1049 23.0396 59.1339 23.2426 59.1919 23.3199C58.7665 23.3006 58.4572 23.2233 58.2639 23.0879C58.0705 22.9719 57.9159 22.8366 57.7999 22.6819C57.7032 22.5466 57.6065 22.4016 57.5099 22.2469C57.4325 22.1116 57.3069 22.0053 57.1329 21.9279C56.9975 21.8699 56.8815 21.7346 56.7849 21.5219C56.6882 21.3093 56.6012 21.0773 56.5239 20.8259C56.4659 20.5553 56.4175 20.2846 56.3789 20.0139C56.3402 19.7433 56.3209 19.5209 56.3209 19.3469Z" fill="#EABC3D"/>
<path d="M65.5013 8.74395C65.3947 8.61595 65.2987 8.34928 65.2133 7.94395C65.128 7.51728 65.0853 7.15461 65.0853 6.85595C65.64 6.89861 66.1733 6.94128 66.6853 6.98395C67.1973 7.00528 67.6667 7.02661 68.0933 7.04795C68.4133 6.40795 68.7547 5.77861 69.1173 5.15995C69.5013 4.51995 69.864 3.94395 70.2053 3.43195C70.568 2.89861 70.8987 2.45061 71.1973 2.08795C71.5173 1.72528 71.7627 1.49061 71.9333 1.38395C72.1467 1.38395 72.4133 1.42661 72.7333 1.51195C73.0747 1.57595 73.416 1.67195 73.7573 1.79995C74.0987 1.90661 74.408 2.02395 74.6853 2.15195C74.9627 2.27995 75.1547 2.40795 75.2613 2.53595C74.6213 3.34661 74.0667 4.10395 73.5973 4.80795C73.1493 5.49061 72.6587 6.27995 72.1253 7.17595C72.552 7.17595 72.9787 7.16528 73.4053 7.14395C73.8533 7.12261 74.3013 7.09061 74.7493 7.04795C74.856 7.15461 74.9413 7.29328 75.0053 7.46395C75.0693 7.61328 75.1013 7.77328 75.1013 7.94395C74.056 8.32795 72.7867 8.54128 71.2933 8.58395C70.76 9.60795 70.28 10.6319 69.8533 11.6559C69.448 12.6586 69.096 13.6293 68.7973 14.5679C68.52 15.5066 68.296 16.3919 68.1253 17.2239C67.976 18.0559 67.9013 18.8026 67.9013 19.4639C67.9013 20.4026 68.2533 20.9253 68.9573 21.0319C69.5973 20.9466 70.2053 20.7866 70.7813 20.5519C71.3573 20.3173 71.8693 20.0186 72.3173 19.6559C72.4453 19.8479 72.52 20.0079 72.5413 20.1359C72.4133 20.3279 72.1893 20.5519 71.8693 20.8079C71.5707 21.0639 71.24 21.3093 70.8773 21.5439C70.5147 21.7999 70.1627 22.0133 69.8213 22.1839C69.48 22.3546 69.224 22.4506 69.0533 22.4719C68.52 22.4506 67.9867 22.3333 67.4533 22.1199C66.92 21.9066 66.4293 21.6399 65.9813 21.3199C65.5547 20.9999 65.2027 20.6479 64.9253 20.2639C64.648 19.8586 64.5093 19.4639 64.5093 19.0799C64.5093 18.5679 64.5733 17.9279 64.7013 17.1599C64.8507 16.3706 65.0533 15.5173 65.3093 14.5999C65.5653 13.6826 65.864 12.7226 66.2053 11.7199C66.5467 10.7173 66.92 9.72528 67.3253 8.74395H65.5013Z" fill="#EABC3D"/>
</svg>
